<svg xmlns="http://www.w3.org/2000/svg" version="1.1" xmlns:xlink="http://www.w3.org/1999/xlink" xmlns:svgjs="http://svgjs.com/svgjs" width="1440" height="560" preserveAspectRatio="none" viewBox="0 0 1440 560"><g mask="url(&quot;#SvgjsMask1000&quot;)" fill="none"><rect width="1440" height="560" x="0" y="0" fill="#1e3266"></rect><path d="M1512 560L0 560 L0 290.38Q66.55 284.93, 72 351.47Q140.44 299.92, 192 368.36Q208.82 265.18, 312 282Q386.36 236.36, 432 310.72Q520.21 278.94, 552 367.15Q577.81 272.96, 672 298.77Q701.72 256.49, 744 286.21Q845.62 267.83, 864 369.45Q899.65 285.11, 984 320.76Q1002 266.76, 1056 284.77Q1103.81 260.57, 1128 308.38Q1195.7 304.08, 1200 371.78Q1243.15 294.93, 1320 338.09Q1385.88 283.97, 1440 349.85Q1444.55 282.4, 1512 286.95z" fill="#182f5d"></path><path d="M1488 560L0 560 L0 359.68Q87.3 326.98, 120 414.27Q185.35 359.62, 240 424.97Q255.33 368.31, 312 383.64Q380.4 332.04, 432 400.45Q487.7 384.15, 504 439.85Q505.36 369.21, 576 370.57Q642.27 316.84, 696 383.11Q763.74 378.85, 768 446.59Q815.53 374.12, 888 421.65Q895.15 356.8, 960 363.96Q1002.86 334.81, 1032 377.67Q1078.72 304.39, 1152 351.11Q1206.97 334.08, 1224 389.04Q1267.36 360.39, 1296 403.75Q1371.81 359.56, 1416 435.36Q1442.13 389.5, 1488 415.63z" fill="#25467d"></path><path d="M1512 560L0 560 L0 495.76Q66.06 441.81, 120 507.87Q141.63 409.5, 240 431.12Q317.94 389.06, 360 466.99Q435.19 422.18, 480 497.37Q504.09 401.46, 600 425.55Q668.29 373.84, 720 442.12Q781.38 431.5, 792 492.87Q860.29 441.16, 912 509.46Q954.25 431.7, 1032 473.95Q1069.74 391.69, 1152 429.43Q1224.8 382.23, 1272 455.02Q1363.38 426.4, 1392 517.79Q1413.99 419.77, 1512 441.76z" fill="#356cb1"></path><path d="M1536 560L0 560 L0 576.18Q33.15 489.33, 120 522.48Q147.81 478.29, 192 506.1Q291.06 485.16, 312 584.23Q340.38 540.62, 384 569Q427.59 492.59, 504 536.17Q574.73 486.89, 624 557.62Q630.81 492.43, 696 499.25Q738.76 470.01, 768 512.77Q823.43 496.2, 840 551.64Q907.95 499.59, 960 567.53Q999.63 487.16, 1080 526.8Q1123.99 498.78, 1152 542.77Q1174.53 493.3, 1224 515.83Q1289.41 461.25, 1344 526.66Q1362.27 472.93, 1416 491.21Q1483.32 438.52, 1536 505.84z" fill="white"></path></g><defs><mask id="SvgjsMask1000"><rect width="1440" height="560" fill="#ffffff"></rect></mask></defs></svg>