<?xml version="1.0" standalone="no"?><svg xmlns="http://www.w3.org/2000/svg" viewBox="0 0 1440 320"><path fill="#a2d9ff" fill-opacity="1" d="M0,32L40,58.7C80,85,160,139,240,186.7C320,235,400,277,480,250.7C560,224,640,128,720,128C800,128,880,224,960,245.3C1040,267,1120,213,1200,170.7C1280,128,1360,96,1400,80L1440,64L1440,320L1400,320C1360,320,1280,320,1200,320C1120,320,1040,320,960,320C880,320,800,320,720,320C640,320,560,320,480,320C400,320,320,320,240,320C160,320,80,320,40,320L0,320Z"></path></svg>